<?xml version="1.0" encoding="utf-8"?>
<!-- Generator: Adobe Illustrator 28.3.0, SVG Export Plug-In . SVG Version: 6.00 Build 0)  -->
<svg version="1.1" id="Layer_1" xmlns="http://www.w3.org/2000/svg" xmlns:xlink="http://www.w3.org/1999/xlink" x="0px" y="0px"
	 viewBox="0 0 459 98.3" style="enable-background:new 0 0 459 98.3;" xml:space="preserve">
<style type="text/css">
	.st0{fill-rule:evenodd;clip-rule:evenodd;fill:#F89522;}
	.st1{fill-rule:evenodd;clip-rule:evenodd;fill:#A4CD39;}
	.st2{fill-rule:evenodd;clip-rule:evenodd;fill:#3DC5F2;}
	.st3{fill:#A4CD39;}
	.st4{fill:#F89522;}
</style>
<g>
	<path class="st0" d="M77,18.8c-4.1-3.6-8.3-4.6-13.8-4.6c-6.5,0-15,2.8-15,11.1c0,8.1,8,10.5,14.7,11c5,0.3,7,1.3,7,3.8
		c0,2.6-3.1,4.3-6.5,4.3c-4-0.1-9.8-2.2-12.2-5L47,45.6C52.1,51,57.8,52,63.4,52c10.1,0,15.3-5.4,15.3-11.7c0-9.5-8.5-11-15.2-11.4
		c-4.6-0.3-6.6-1.6-6.6-3.9c0-2.2,2.3-3.5,6.5-3.5c3.4,0,6.3,0.8,8.8,3.2L77,18.8z"/>
	<path class="st0" d="M88.5,6v9.1h-6.6v7.6h6.6v15.4c0,8.8,5,13.3,12.8,13c2.7-0.1,4.7-0.5,7.3-1.5l-2.5-7.5
		c-1.3,0.7-2.9,1.1-4.3,1.1c-2.8,0-4.6-1.6-4.6-5V22.7h9.9v-7.6h-9.8V5L88.5,6z"/>
	<path class="st0" d="M140.3,20c-2-3.5-6.5-5.8-11.3-5.8c-10.4-0.1-18.5,6.4-18.5,18.6c0,12.4,7.8,19,18.3,18.9
		c4-0.1,9.5-2.1,11.5-6.3l0.5,5.2h8.3V15.1h-8.4L140.3,20z M129.8,22.1c13.8,0,13.8,21.5,0,21.5c-5.9,0-10.5-4-10.5-10.8
		C119.2,26,123.9,22.1,129.8,22.1"/>
	<path class="st0" d="M154.6,15.1v35.6h8.8V31.9c0-6.5,4.3-9,8.9-9c2.9,0,4.6,0.8,6.4,2.3l4-7.6c-2-1.9-5.5-3.4-9.2-3.4
		c-3.6,0-7.3,0.7-10,5l-0.7-4.1H154.6z"/>
	<path class="st0" d="M193.4,6v9.1h-6.6v7.6h6.6v15.4c0,8.8,5,13.3,12.8,13c2.7-0.1,4.7-0.5,7.3-1.5l-2.5-7.5
		c-1.3,0.7-2.8,1.1-4.3,1.1c-2.8,0-4.6-1.6-4.6-5V22.7h9.9v-7.6h-9.8V5L193.4,6z"/>
	<path class="st0" d="M218.5,15.1v18.7c0,11,6.2,17.5,14.7,17.5c4.9,0,8.3-1.7,12.1-5.3l0.6,4.7h7.9V15.1H245v18.2
		c0,5.5-3.7,10-9.1,10c-5.6,0-8.6-4.1-8.6-9.5V15.1L218.5,15.1L218.5,15.1z"/>
	<path class="st0" d="M278.5,43c-6,0-10.1-4.5-10.1-10.1c0-5.6,3.8-10.1,10.1-10.1s10.1,4.6,10.1,10.1C288.5,38.5,284.4,43,278.5,43
		 M267.6,65.5V46.4c2.5,3.9,8.1,5,11.9,5c11.4,0,17.9-8.2,17.9-18.6c0-10.4-7.3-18.6-18.2-18.6c-4,0-8.8,1.7-11.5,5.7l-0.6-4.9h-8.2
		v50.4H267.6z"/>
	<path class="st0" d="M311,50.6h-8.8V14.9h8.8V50.6z M301.4,5.1c0,6.8,10.4,6.8,10.4,0C311.8-1.7,301.4-1.7,301.4,5.1"/>
	<path class="st0" d="M351.5,50.6V32c0-11.2-6.7-17.5-15.1-17.5c-4.5,0-8.1,1.8-11.7,5.3l-0.6-4.8h-7.9v35.6h8.7V32.5
		c0-5.4,3.7-10,9.1-10c5.6,0,8.5,4.1,8.5,9.5v18.6L351.5,50.6L351.5,50.6z"/>
	<path class="st0" d="M375,22.4c5.5,0,10.3,4.2,10.3,10.4c0,6.4-4.7,10.4-10.3,10.4c-5.6,0-10.1-4.3-10.1-10.4
		C364.9,26.4,369.3,22.4,375,22.4 M385.8,0.2v19.6c-2.1-3.7-8-5.7-11.7-5.7c-10.4,0-18.1,6.4-18.1,18.6c0,11.7,7.9,18.6,18.3,18.6
		c4.4,0,8.7-1.4,11.5-5.7l0.6,4.9h8.2V0.2L385.8,0.2L385.8,0.2L385.8,0.2z"/>
	<path class="st1" d="M401.1,5.1c0,6.8,10.4,6.8,10.4,0C411.5-1.7,401.1-1.7,401.1,5.1"/>
	<rect x="402" y="14.9" class="st2" width="8.8" height="35.7"/>
	<path class="st0" d="M445.3,20c-2-3.5-6.5-5.8-11.3-5.8c-10.4-0.1-18.5,6.4-18.5,18.6c0,12.4,7.8,19,18.3,18.9
		c4-0.1,9.5-2.1,11.5-6.3l0.5,5.2h8.2V15.1h-8.4L445.3,20z M434.7,22.1c13.8,0,13.8,21.5,0,21.5c-5.9,0-10.5-4-10.5-10.8
		C424.2,26,429,22.1,434.7,22.1"/>
	<rect x="368.8" y="56.1" class="st3" width="42" height="8.6"/>
	<rect x="368.6" y="56.2" class="st3" width="8.6" height="42.1"/>
	<rect x="335.4" y="89.6" class="st3" width="41.9" height="8.6"/>
	<path class="st4" d="M20.6,24.5l-3,11.9h7.5l3-11.9H20.6z M24.9,9.2l-2.2,8.9h6.5l2.2-8.9h7.9l-2.2,9h4.3v6.9h-6l-2.8,10.9h4.7v7
		h-6.3L29.2,51h-8.1l1.9-8.1h-6.6l-2,8.1h-8l2-8.1H4v-7h6.3L13.1,25h-5v-6.8h6.6l2.2-8.9L24.9,9.2L24.9,9.2L24.9,9.2z"/>
</g>
</svg>
