<svg xmlns="http://www.w3.org/2000/svg" viewBox="0 0 510.42 192.63"><defs><style>.cls-1{fill:#00529c;}.cls-2{fill:#c02026;}.cls-3{font-size:12px;fill:#231f20;font-family:MyriadPro-Regular, Myriad Pro;}</style></defs><g id="Layer_2" data-name="Layer 2"><g id="Layer_1-2" data-name="Layer 1"><path class="cls-1" d="M147.08,126.63V96.79A5.07,5.07,0,0,0,142,91.71h0a5.07,5.07,0,0,1-5.08-5.08V72.5A5.08,5.08,0,0,1,142,67.42h0a5.07,5.07,0,0,0,5.08-5.08V50.76a5.07,5.07,0,0,1,5.08-5.08h20a5.07,5.07,0,0,1,5.08,5.08V62.34a5.07,5.07,0,0,0,5.08,5.08h9.84a5.08,5.08,0,0,1,5.08,5.08V86.63a5.07,5.07,0,0,1-5.08,5.08h-9.84a5.07,5.07,0,0,0-5.08,5.08v24c0,6,2.7,8.57,8.25,8.57a23.18,23.18,0,0,0,5.2-.61,5,5,0,0,1,6.23,4.81V147a5.13,5.13,0,0,1-3.13,4.7A45.29,45.29,0,0,1,176,155.05C157.87,155.05,147.08,147.11,147.08,126.63Z"/><path class="cls-1" d="M209.62,123.62V70.74a3.32,3.32,0,0,1,3.32-3.32h23.52a3.32,3.32,0,0,1,3.32,3.32v43.19c0,9.37,4.92,14.45,12.22,14.45,7.15,0,12.54-5.08,12.54-14.45V70.74a3.32,3.32,0,0,1,3.32-3.32h23.52a3.32,3.32,0,0,1,3.32,3.32V150a3.32,3.32,0,0,1-3.32,3.32H267.86a3.32,3.32,0,0,1-3.32-3.32h0a3.31,3.31,0,0,0-5.48-2.51,29.55,29.55,0,0,1-20.23,7.74C220.57,155.21,209.62,143.14,209.62,123.62Z"/><path class="cls-1" d="M314.29,67.42h23.36a3.4,3.4,0,0,1,3.4,3.4h0a3.39,3.39,0,0,0,5.64,2.55,29.24,29.24,0,0,1,20.07-7.85C385,65.52,396,77.58,396,97.11V149.9a3.4,3.4,0,0,1-3.4,3.4H369.21a3.4,3.4,0,0,1-3.4-3.4V106.79c0-9.37-4.92-14.44-12.06-14.44-7.31,0-12.7,5.07-12.7,14.44V149.9a3.4,3.4,0,0,1-3.4,3.4H314.29a3.4,3.4,0,0,1-3.4-3.4V70.82A3.4,3.4,0,0,1,314.29,67.42Z"/><path class="cls-1" d="M418.28,37.42h16.64a6.76,6.76,0,0,1,6.76,6.76V77.1a6.76,6.76,0,0,0,12,4.27L463,69.92a6.76,6.76,0,0,1,5.25-2.5H491a3.71,3.71,0,0,1,2.8,6.13L472.5,98.18a6.77,6.77,0,0,0-.7,7.89l22.05,37A6.76,6.76,0,0,1,488,153.3H470.62A6.76,6.76,0,0,1,464.8,150L454.26,132.2a6.76,6.76,0,0,0-10.94-1h0a6.75,6.75,0,0,0-1.64,4.41v10.89a6.76,6.76,0,0,1-6.76,6.76H418.28a6.76,6.76,0,0,1-6.76-6.76V44.18A6.76,6.76,0,0,1,418.28,37.42Z"/><path class="cls-2" d="M115.79,148.55q-.57-1.52-1-2.91A57.39,57.39,0,0,1,61.85,181c-1.17,0-2.33,0-3.48-.11a68.59,68.59,0,0,0,12.2,8.05C96.82,202.54,126.19,176.22,115.79,148.55Z"/><path class="cls-2" d="M77.52,65.59a4.6,4.6,0,0,0-4.72-4.46h-31a4.47,4.47,0,1,0,0,8.92h31A4.6,4.6,0,0,0,77.52,65.59Z"/><path class="cls-2" d="M77.52,89a4.6,4.6,0,0,0-4.72-4.46h-31a4.47,4.47,0,1,0,0,8.92h31A4.6,4.6,0,0,0,77.52,89Z"/><path class="cls-2" d="M77.52,112.38a4.59,4.59,0,0,0-4.72-4.46h-31a4.46,4.46,0,1,0,0,8.91h31A4.59,4.59,0,0,0,77.52,112.38Z"/><path class="cls-2" d="M110.22,142.61a57,57,0,0,0,3.7-13.17,57.66,57.66,0,0,0,.68-8.77V57.3A57.3,57.3,0,0,0,0,57.3v63.37a57.36,57.36,0,0,0,53.82,57.18c1.16.07,2.31.11,3.48.11A57.37,57.37,0,0,0,110.22,142.61ZM97,124.39a39.73,39.73,0,1,1-79.45,0V53.57a39.73,39.73,0,1,1,79.45,0Z"/><text class="cls-3" transform="translate(494.81 37.42)">TM</text></g></g></svg>